<svg height="512" viewBox="0 0 64 64" width="512" xmlns="http://www.w3.org/2000/svg"><path d="m35 48a7 7 0 0 1 7-7h12a7 7 0 0 1 7 7v11a2.006 2.006 0 0 1 -2 2h-2.25a2 2 0 0 1 -1.98-1.74l-.72-5.39a1 1 0 0 0 -.99-.87h-10.12a1 1 0 0 0 -.99.87l-.72 5.39a2 2 0 0 1 -1.98 1.74h-2.25a2.006 2.006 0 0 1 -2-2z" fill="#acabb1"/><path d="m3 48a7 7 0 0 1 7-7h12a7 7 0 0 1 7 7v11a2.006 2.006 0 0 1 -2 2h-2.25a2 2 0 0 1 -1.98-1.74l-.72-5.39a1 1 0 0 0 -.99-.87h-10.12a1 1 0 0 0 -.99.87l-.72 5.39a2 2 0 0 1 -1.98 1.74h-2.25a2.006 2.006 0 0 1 -2-2z" fill="#acabb1"/><g fill="#898890"><path d="m42 41h2a7 7 0 0 0 -7 7v11a2.006 2.006 0 0 0 2 2h-2a2.006 2.006 0 0 1 -2-2v-11a7 7 0 0 1 7-7z"/><path d="m58.75 61h-2a2 2 0 0 1 -1.98-1.74l-.72-5.39a1 1 0 0 0 -.99-.87h2a1 1 0 0 1 .99.87l.72 5.39a2 2 0 0 0 1.98 1.74z"/><path d="m10 41h2a7 7 0 0 0 -7 7v11a2.006 2.006 0 0 0 2 2h-2a2.006 2.006 0 0 1 -2-2v-11a7 7 0 0 1 7-7z"/><path d="m26.75 61h-2a2 2 0 0 1 -1.98-1.74l-.72-5.39a1 1 0 0 0 -.99-.87h2a1 1 0 0 1 .99.87l.72 5.39a2 2 0 0 0 1.98 1.74z"/></g><circle cx="32" cy="19" fill="#ffd422" r="16"/><path d="m12 46h-2v-2h-2v2h-2v2h2v2h2v-2h2z" fill="#ff9811"/><path d="m22 44h2v2h-2z" fill="#d8d7da"/><path d="m24 46h2v2h-2z" fill="#d8d7da"/><path d="m22 48h2v2h-2z" fill="#d8d7da"/><path d="m20 46h2v2h-2z" fill="#d8d7da"/><path d="m13 44h2v2h-2z" fill="#c6c5ca"/><path d="m17 44h2v2h-2z" fill="#c6c5ca"/><path d="m44 46h-2v-2h-2v2h-2v2h2v2h2v-2h2z" fill="#ff9811"/><path d="m54 44h2v2h-2z" fill="#d8d7da"/><path d="m56 46h2v2h-2z" fill="#d8d7da"/><path d="m54 48h2v2h-2z" fill="#d8d7da"/><path d="m52 46h2v2h-2z" fill="#d8d7da"/><path d="m45 44h2v2h-2z" fill="#c6c5ca"/><path d="m49 44h2v2h-2z" fill="#c6c5ca"/><path d="m49 41h-2v-4a1 1 0 0 1 1-1h12v-2h-8a1 1 0 0 1 -1-1v-13h-3v-2h4a1 1 0 0 1 1 1v13h8a1 1 0 0 1 1 1v4a1 1 0 0 1 -1 1h-12z" fill="#c6c5ca"/><path d="m17 41h-2v-5h-12a1 1 0 0 1 -1-1v-4a1 1 0 0 1 1-1h8v-11a1 1 0 0 1 1-1h4v2h-3v11a1 1 0 0 1 -1 1h-8v2h12a1 1 0 0 1 1 1z" fill="#c6c5ca"/><path d="m32 36a17 17 0 1 1 17-17 17.019 17.019 0 0 1 -17 17zm0-32a15 15 0 1 0 15 15 15.017 15.017 0 0 0 -15-15z" fill="#ee8700"/><path d="m39 24h-4a2 2 0 0 1 -2-2v-1h2v1h4v-2h-4a2 2 0 0 1 -2-2v-2a2 2 0 0 1 2-2h4a2 2 0 0 1 2 2v1h-2v-1h-4v2h4a2 2 0 0 1 2 2v2a2 2 0 0 1 -2 2z" fill="#ed1c24"/><path d="m27 24a1 1 0 0 1 -.919-.606l-3-7a.989.989 0 0 1 -.081-.394v-2h2v1.8l2 4.666 2-4.666v-1.8h2v2a.989.989 0 0 1 -.081.394l-3 7a1 1 0 0 1 -.919.606z" fill="#ed1c24"/></svg>