<svg height="512" viewBox="0 0 58 58" width="512" xmlns="http://www.w3.org/2000/svg"><g id="Page-1" fill="none" fill-rule="evenodd"><g id="014---VS" fill-rule="nonzero"><path id="Shape" d="m36 46-7-1-7 1-3 8 10 1.5 10-1.5z" fill="#2980ba"/><path id="Shape" d="m58 4v37.5h-58v-37.5c0-2.209139 1.790861-4 4-4h50c2.209139 0 4 1.790861 4 4z" fill="#2c3e50"/><path id="Shape" d="m43.91 0c-.29 1.2-.65 2.55-1.11 4-1.2351278 3.96542137-2.8842127 7.7898236-4.92 11.41-3.0096184 5.4101924-7.001085 10.2121608-11.77 14.16h-.01c-3.1571594 2.5873376-6.6402352 4.7491308-10.36 6.43-4.1873323 1.8807957-8.59560179 3.2247803-13.12 4h-2.62v-36c0-2.209139 1.790861-4 4-4z" fill="#35495e"/><path id="Shape" d="m58 40v2c0 2.209139-1.790861 4-4 4h-50c-2.209139 0-4-1.790861-4-4v-2z" fill="#3b97d3"/><rect id="Rectangle-path" fill="#3b97d3" height="4" rx="2" width="32" x="13" y="54"/><path id="Shape" d="m54 25v10c0 .5522847-.4477153 1-1 1h-37.26c3.7197648-1.6808692 7.2028406-3.8426624 10.36-6.43h.01c4.8482204 1.4711936 10.0294881-.9237991 12.05-5.57h14.84c.5522847 0 1 .4477153 1 1z" fill="#f0c419"/><path id="Shape" d="m26.1 29.57c-3.1571594 2.5873376-6.6402352 4.7491308-10.36 6.43h-10.74c-.55228475 0-1-.4477153-1-1v-10c0-.5522847.44771525-1 1-1h14.84c1.1724584 2.6822395 3.4596418 4.7173211 6.26 5.57z" fill="#f3d55b"/><path id="Shape" d="m54 5v10c0 .5522847-.4477153 1-1 1h-14.84c-.09-.2-.18-.4-.28-.59 2.0357873-3.6201764 3.6848722-7.44457863 4.92-11.41h10.2c.2652165 0 .5195704.10535684.7071068.29289322s.2928932.44189029.2928932.70710678z" fill="#f0c419"/><path id="Shape" d="m42.8 4c-1.2351278 3.96542137-2.8842127 7.7898236-4.92 11.41-1.7683998-3.4275891-5.351599-5.53136081-9.2064285-5.4052882-3.8548295.1260726-7.2929104 2.459476-8.8335715 5.9952882h-14.84c-.55228475 0-1-.4477153-1-1v-10c0-.55228475.44771525-1 1-1z" fill="#f3d55b"/><path id="Shape" d="m39 20c-.0055123 5.5205626-4.4794374 9.9944877-10 10-.9793983.0017495-1.953536-.1431914-2.89-.43 4.768915-3.9478392 8.7603816-8.7498076 11.77-14.16.7387873 1.4170043 1.1230928 2.9919705 1.12 4.59z" fill="#c03a2b"/><path id="Shape" d="m37.88 15.41c-3.0096184 5.4101924-7.001085 10.2121608-11.77 14.16-4.3537424-1.3107534-7.2751975-5.3936129-7.1106263-9.9374069.1645712-4.5437939 3.3737374-8.4046091 7.810896-9.3969657 4.4371585-.99235669 8.9852417 1.1335738 11.0697303 5.1743726z" fill="#e64c3c"/><circle id="Oval" cx="29" cy="43" fill="#285680" r="1"/><g fill="#ecf0f1"><path id="Shape" d="m25.5 25c-.4371091.0004636-.8238674-.2830242-.955-.7l-2.5-8c-.1071797-.3411886-.0241958-.7136396.2176924-.9770543.2418882-.2634146.6059321-.377774.955-.3.3490678.077774.6301279.3358657.7373076.6770543l1.545 4.947 1.545-4.947c.1071797-.3411887.3882397-.5992803.7373076-.6770543s.7131118.0365854.955.3c.2418882.2634147.3248721.6358657.2176924.9770543l-2.5 8c-.1311326.4169758-.5178909.7004636-.955.7z"/><path id="Shape" d="m33 25c-.7963701.0023114-1.5605334-.3142294-2.122-.879-.2597729-.2512596-.3637612-.6231337-.2719978-.9726946.0917635-.3495608.3649986-.6224097.7146889-.7136787s.721417.0132453.9723089.2733733c.3202649.319456.8150982.3841378 1.2067146.1577348.3916165-.226403.582482-.6875039.4654502-1.1244539s-.5128136-.7409245-.9651648-.7412809c-1.3578286-.0001627-2.546258-.9123126-2.8975192-2.2239201-.3512611-1.3116075.2222343-2.695618 1.3982439-3.374367 1.1760095-.6787489 2.6612904-.4829877 3.6212753.4772871.3787042.3926454.3728476 1.0163551-.0131628 1.40182-.3860105.3854648-1.0097279.3904391-1.4018372.01118-.3202649-.319456-.8150982-.3841378-1.2067146-.1577348-.3916165.226403-.582482.6875039-.4654502 1.1244539s.5128136.7409245.9651648.7412809c1.6568542 0 3 1.3431458 3 3s-1.3431458 3-3 3z"/></g></g></g></svg>